<svg xmlns="http://www.w3.org/2000/svg" xmlns:xlink="http://www.w3.org/1999/xlink" width="64" height="40" viewBox="0 0 64 40">
    <defs>
        <rect id="a" width="64" height="40" rx="2"/>
    </defs>
    <g fill="none" fill-rule="evenodd">
        <mask id="b" fill="#fff">
            <use xlink:href="#a"/>
        </mask>
        <use fill="#D8D8D8" xlink:href="#a"/>
        <path fill="#3889EF" d="M0 0h64v40H0z" mask="url(#b)"/>
        <g fill="#FFF" mask="url(#b)">
            <path d="M56.455 6.87h.983l-.006 1.55h.214l.56-1.55h1.064l-.763 2.047.873 2.267h-1.15l-.566-1.735h-.232l.006 1.735h-.983zM53.144 6.87h.977v1.555h.7V6.87h.975v4.315h-.976v-1.73h-.7v1.73h-.976zM49.739 11.19h1.017l.122-.747h.699l.122.746h1.017l-.856-4.313H50.6l-.861 4.313zm1.491-3.008l.185 1.313h-.376l.191-1.313zM47.01 11.184h1.19c.26 0 1.342-.11 1.348-1.418 0-1.097-.838-1.289-1.382-1.289h-.179v-.572h1.324V6.869h-2.3v4.315zm.977-.868v-.977h.145c.12 0 .434.006.434.45 0 .453-.313.527-.434.527h-.145zM43.132 6.87h.85l.75 1.017.758-1.018h.844v4.315h-1V8.552l-.602.752-.6-.752v2.632h-1zM41.068 11.236c1.185 0 1.583-1.11 1.583-2.215 0-1.104-.398-2.215-1.583-2.215s-1.584 1.11-1.584 2.215c0 1.104.399 2.215 1.584 2.215m0-1.047c-.353 0-.532-.41-.532-1.168s.179-1.168.532-1.168c.353 0 .531.41.531 1.168s-.178 1.168-.531 1.168M36.588 11.184h1V9.76h.336c.988 0 1.294-.89 1.294-1.458 0-.555-.353-1.434-1.294-1.434h-1.336v4.315zm1-3.366h.237c.226 0 .37.139.37.497 0 .463-.243.497-.37.497h-.237v-.994zM33.287 6.87h2.729v4.314h-1V7.91h-.729v3.274h-1zM31.235 8.541c.162 0 .457-.104.457-.422 0-.376-.341-.4-.44-.4-.115 0-.335.018-.549.122l-.011-.937c.34-.087.584-.11.872-.11.822 0 1.186.573 1.186 1.133 0 .544-.313.873-.619 1v.041c.295.094.688.376.688 1.036 0 .816-.566 1.266-1.295 1.266-.387-.005-.642-.057-.948-.225l.018-.897c.283.122.473.133.664.133.324 0 .451-.237.451-.41 0-.243-.156-.405-.497-.405h-.405v-.925h.428zM27.305 11.184h1.011l.128-.747h.699l.121.747h1.011l-.855-4.315h-1.26l-.855 4.315zM28.79 8.17l.19 1.318h-.38l.19-1.318zM25.369 6.87h2.05v1.075h-1.034v3.239H25.37z"/>
            <path fill-rule="nonzero" d="M12.25 9.003a4.756 4.756 0 0 0 4.753 4.747 4.754 4.754 0 0 0 4.747-4.747 4.755 4.755 0 0 0-4.747-4.753 4.757 4.757 0 0 0-4.753 4.753zm-.25 0A5.007 5.007 0 0 1 17.003 4 5.005 5.005 0 0 1 22 9.003 5.004 5.004 0 0 1 17.003 14 5.006 5.006 0 0 1 12 9.003z"/>
            <path d="M14.949 6.01c1.207-.538 2.682-.503 3.473-.15.249.115.416.185.492.323-.821-.22-1.174-.26-1.861-.243-.978.018-2.278.405-2.776.7l-.218.272c.716-.423 2.051-.7 2.792-.723.826-.011 1.467.064 2.057.278-.035.15-.11.225-.237.3-2.358-.41-3.752.075-5.012.896l-.092.272c1.405-.965 3.127-1.23 4.786-.942-.595.208-1.306.254-1.901.392-.509.116-.78.151-1.458.377-.687.226-1.092.457-1.346.752a.931.931 0 0 0-.238.474.616.616 0 0 0 .03.29.81.81 0 0 0 .162.242c-.08.139-.151.319-.035.527.052.098.185.196.313.29l-.036.102c-.017.123-.034.267.047.388.138.22.306.365.571.504.041.179.104.323.243.451.295.271.954.792 2.127.873a3.475 3.475 0 0 0 1.747-.324l.289-.15c-.492.196-1.318.312-1.995.254-.983-.08-1.86-.723-1.97-.908.034.023.08.04.12.058 1.15.555 2.636.856 4.538.081l.157-.15c-1.73.537-3.243.52-4.868-.33a.336.336 0 0 1 .127-.208c.416.184.815.335 1.3.433a8.14 8.14 0 0 0 1.747.105c.538-.023 1.6-.29 2.104-.555.046-.04.069-.11.115-.156-.982.357-2.15.526-2.855.473-.688-.052-1.3-.133-2.11-.503.156-.063.318-.115.48-.162a6.78 6.78 0 0 0 1.716.29c.637.028 2.122-.208 3.058-.775.03-.081.058-.168.058-.168s-1.3.694-2.774.694a5.51 5.51 0 0 1-1.422-.174c.693-.127 1.566-.231 2.548-.48.497-.127 1.11-.417 1.388-.659.237-.215.422-.492.359-.774a.556.556 0 0 0-.244-.319.474.474 0 0 0 .093-.404.765.765 0 0 0-.103-.272.983.983 0 0 0-.314-.279.57.57 0 0 0-.046-.358c-.12-.208-.34-.387-.716-.578a.698.698 0 0 0-.144-.272c-.474-.468-1.249-.694-1.903-.706h-.108c-.765 0-1.378.17-1.758.348a2.764 2.764 0 0 0-.497.282zm4.363.63c.163.104.348.26.37.423a5.655 5.655 0 0 0-.537-.18c.058-.063.144-.161.167-.243zm-.867.723c.197-.075.33-.156.446-.249.26.07.502.156.7.243-.034.05-.232.234-.293.234l-.009-.002c-.277-.076-.52-.169-.844-.226zm1.556.231c.155.133.202.226.127.37-.104-.074-.214-.115-.335-.173.074-.058.144-.12.208-.197zm-4.804.533a14.77 14.77 0 0 1 2.33-.469c.525-.064.803-.005 1.3.127-1.277.342-2.538.45-3.74.804-.97.282-1.227.636-1.23.636-.429-.59 1.056-1.011 1.34-1.098zm.683.71c1.069-.23 2.063-.375 2.473-.479.498-.122.844-.237 1.086-.353.012-.017.405.173.446.219-.133.11-.317.203-.52.272-.607.22-1.711.451-2.295.54-.59.097-1.082.172-1.734.345-.376.099-.63.214-.816.336-.138-.081-.22-.104-.346-.209.45-.382 1.37-.595 1.706-.67zm-.267.938c1.017-.25 1.914-.295 3.15-.63.596-.157 1.03-.325 1.302-.533.04-.035.08-.064.12-.098.36.555-.988.983-1.907 1.18-.51.104-1.214.23-1.446.272-.6.098-.797.15-1.213.272a6.337 6.337 0 0 1-.607-.267c.19-.08.399-.145.6-.196zm-1.41.185c-.04.034-.093.07-.133.11-.092-.053-.186-.168-.14-.272.093.058.162.104.273.162zm.422.214c.173.081.352.156.52.231a1.784 1.784 0 0 0-.323.157c-.14-.076-.273-.151-.411-.232a1.72 1.72 0 0 1 .214-.156zm-.07.607a.534.534 0 0 0-.086.162c-.145-.122-.215-.22-.209-.33.099.064.197.116.296.168z"/>
        </g>
    </g>
</svg>
