<svg xmlns="http://www.w3.org/2000/svg" xmlns:xlink="http://www.w3.org/1999/xlink" width="52" height="52" viewBox="0 0 52 52">
    <defs>
        <path id="a" d="M30.354 12.27c.357 0 .646-.288.646-.645V9.042a.646.646 0 0 0-.646-.646h-1.937V5.812a3.875 3.875 0 0 0-3.875-3.875H5.167a3.876 3.876 0 0 0-3.875 3.875v19.375a3.876 3.876 0 0 0 3.875 3.875h19.375a3.875 3.875 0 0 0 3.875-3.875v-2.583h1.937c.357 0 .646-.29.646-.646v-2.583a.646.646 0 0 0-.646-.646h-1.937v-6.458h1.937zm-4.52 12.272c0 1.07-.869 1.937-1.938 1.937H5.812a1.938 1.938 0 0 1-1.937-1.937V6.458c0-1.07.868-1.937 1.938-1.937h18.083c1.07 0 1.937.867 1.937 1.937v18.084zm-20.021 0h18.083V6.458H5.812v18.084zM20.02 15.5a5.173 5.173 0 0 1-5.167 5.167A5.173 5.173 0 0 1 9.688 15.5a5.173 5.173 0 0 1 5.166-5.167 5.173 5.173 0 0 1 5.167 5.167zm-1.938 0a3.229 3.229 0 1 0-6.457-.001 3.229 3.229 0 0 0 6.457.001z"/>
    </defs>
    <g fill="none" fill-rule="evenodd">
        <circle cx="26" cy="26" r="26" fill="#9660D6"/>
        <use fill="#FFF" transform="translate(10.4 10.4)" xlink:href="#a"/>
    </g>
</svg>
