<svg xmlns="http://www.w3.org/2000/svg" width="11" height="12" viewBox="0 0 11 12">
    <path fill="#FFF" fill-rule="nonzero" d="M8.713 5.17l-.645-.74a.885.885 0 0 1-.014-1.103c.253-.31.67-.317.932-.017L10.8 5.39a.883.883 0 0 1-.004 1.126L8.983 8.565c-.264.297-.681.286-.933-.026a.885.885 0 0 1 .022-1.104l.623-.703H4.13c-.364 0-.659-.35-.659-.78 0-.432.295-.781.66-.781h4.581zM6.165 10.44V9.106c0-.431.295-.78.66-.78.363 0 .659.349.659.78v2.114c0 .43-.296.78-.66.78H.66C.295 12 0 11.65 0 11.22V.78C0 .35.295 0 .66 0h6.11c.363 0 .658.35.658.78v2.114c0 .431-.295.78-.659.78-.364 0-.66-.349-.66-.78V1.561H1.32v8.878h4.846z"/>
</svg>
