<svg xmlns="http://www.w3.org/2000/svg" width="28" height="16" viewBox="0 0 28 16">
    <defs>
        <linearGradient id="a" x1="-57.527%" x2="232.391%" y1="50.124%" y2="50.124%">
            <stop offset="0%" stop-color="#007940"/>
            <stop offset="22.85%" stop-color="#00873F"/>
            <stop offset="74.33%" stop-color="#40A737"/>
            <stop offset="100%" stop-color="#5CB531"/>
        </linearGradient>
        <linearGradient id="b" x1=".183%" x2="100.273%" y1="49.96%" y2="49.96%">
            <stop offset="0%" stop-color="#007940"/>
            <stop offset="22.85%" stop-color="#00873F"/>
            <stop offset="74.33%" stop-color="#40A737"/>
            <stop offset="100%" stop-color="#5CB531"/>
        </linearGradient>
        <linearGradient id="c" x1="-62.802%" x2="253.671%" y1="49.858%" y2="49.858%">
            <stop offset="0%" stop-color="#007940"/>
            <stop offset="22.85%" stop-color="#00873F"/>
            <stop offset="74.33%" stop-color="#40A737"/>
            <stop offset="100%" stop-color="#5CB531"/>
        </linearGradient>
        <linearGradient id="d" x1=".176%" x2="101.808%" y1="50.006%" y2="50.006%">
            <stop offset="0%" stop-color="#1F286F"/>
            <stop offset="47.51%" stop-color="#004E94"/>
            <stop offset="82.61%" stop-color="#0066B1"/>
            <stop offset="100%" stop-color="#006FBC"/>
        </linearGradient>
        <linearGradient id="e" x1="-.576%" x2="98.133%" y1="49.914%" y2="49.914%">
            <stop offset="0%" stop-color="#6C2C2F"/>
            <stop offset="17.35%" stop-color="#882730"/>
            <stop offset="57.31%" stop-color="#BE1833"/>
            <stop offset="85.85%" stop-color="#DC0436"/>
            <stop offset="100%" stop-color="#E60039"/>
        </linearGradient>
    </defs>
    <g fill="none" fill-rule="nonzero">
        <path fill="#FFF" d="M27 12.775C27 14.552 25.467 16 23.584 16H5V3.225C5 1.448 6.533 0 8.416 0H27v12.775z"/>
        <path fill="url(#a)" d="M1.2 8.464h1.4c.04 0 .133-.013.173-.013a.603.603 0 0 0 .494-.598.625.625 0 0 0-.494-.598c-.04-.013-.12-.013-.173-.013H1.2v1.222z" transform="translate(20 1)"/>
        <path fill="url(#b)" d="M2.44.025C1.107.025.013 1.056.013 2.342v2.405H3.44c.08 0 .173 0 .24.013.773.038 1.347.42 1.347 1.082 0 .522-.387.967-1.107 1.056v.026c.787.05 1.387.47 1.387 1.12 0 .7-.667 1.158-1.547 1.158H0v4.709h3.56c1.333 0 2.427-1.031 2.427-2.316V.025H2.44z" transform="translate(20 1)"/>
        <path fill="url(#c)" d="M3.093 5.995c0-.306-.226-.51-.493-.548-.027 0-.093-.012-.133-.012H1.2v1.12h1.267c.04 0 .12 0 .133-.013.267-.038.493-.242.493-.547z" transform="translate(20 1)"/>
        <path fill="url(#d)" d="M3.445 1C2.11 1 1.013 2.04 1.013 3.338v5.767c.682.32 1.39.526 2.098.526.842 0 1.297-.488 1.297-1.156V5.752h2.084v2.71c0 1.054-.681 1.914-2.993 1.914-1.403 0-2.499-.295-2.499-.295V15h3.568C5.904 15 7 13.96 7 12.662V1H3.445z" transform="translate(5)"/>
        <path fill="url(#e)" d="M10.432 1C9.096 1 8 2.038 8 3.333v3.052c.615-.5 1.684-.82 3.408-.744.922.038 1.91.282 1.91.282v.987a4.772 4.772 0 0 0-1.844-.513c-1.31-.09-2.098.526-2.098 1.603 0 1.09.789 1.705 2.098 1.603.762-.052 1.35-.282 1.844-.513v.987s-.975.244-1.91.282c-1.724.077-2.793-.244-3.408-.744V15h3.568C12.904 15 14 13.962 14 12.667V1h-3.568z" transform="translate(5)"/>
    </g>
</svg>
