<svg xmlns="http://www.w3.org/2000/svg" width="40" height="40" viewBox="0 0 40 40">
    <g fill="none" fill-rule="evenodd">
        <circle cx="20" cy="20" r="20" fill="#D2E1F1"/>
        <path fill="#4B86C7" d="M25.5 23a1.5 1.5 0 1 1 0-3 1.5 1.5 0 0 1 0 3zm-.609 4.751h-9.782L16.297 26h7.406l1.188 1.751zM13 21.5a1.5 1.5 0 1 1 3.001.001A1.5 1.5 0 0 1 13 21.5zM13 11a1 1 0 0 1 1-1h12a1 1 0 0 1 1 1v5a1 1 0 0 1-1 1H14a1 1 0 0 1-1-1v-5zm16 13V10a2 2 0 0 0-2-2H13a2 2 0 0 0-2 2v14a2 2 0 0 0 2 2h1.483l-3.104 4.579a.75.75 0 1 0 1.242.842l1.471-2.17h11.816l1.471 2.17a.75.75 0 0 0 1.242-.842L25.517 26H27a2 2 0 0 0 2-2z"/>
    </g>
</svg>
