<svg xmlns="http://www.w3.org/2000/svg" width="24" height="24" viewBox="0 0 24 24">
    <path fill="#262C40" fill-rule="nonzero" d="M12.003 15.944A3.943 3.943 0 0 1 8.061 12a3.943 3.943 0 1 1 7.885 0 3.943 3.943 0 0 1-3.943 3.944m8.453-5.227l.902-.533a1.33 1.33 0 0 0 .47-1.793l-1.855-3.283a1.27 1.27 0 0 0-1.756-.48l-.904.535a1.423 1.423 0 0 1-1.452-.003 1.486 1.486 0 0 1-.721-1.28V2.814c0-.725-.575-1.313-1.285-1.313h-3.71c-.71 0-1.285.588-1.285 1.313V3.88c0 .527-.274 1.013-.72 1.279a1.423 1.423 0 0 1-1.453.003l-.904-.535a1.27 1.27 0 0 0-1.756.48L2.172 8.391a1.33 1.33 0 0 0 .47 1.793l.902.533c.449.264.725.752.725 1.282v.003c0 .528-.276 1.017-.725 1.28l-.902.534a1.33 1.33 0 0 0-.47 1.792l1.855 3.283a1.27 1.27 0 0 0 1.756.481l.904-.534a1.421 1.421 0 0 1 1.452.002v.001c.447.265.721.752.721 1.278v1.069c0 .724.575 1.312 1.285 1.312h3.71c.71 0 1.285-.588 1.285-1.313V20.12c0-.526.274-1.013.72-1.278a1.419 1.419 0 0 1 1.453-.003l.904.534a1.27 1.27 0 0 0 1.756-.481l1.855-3.283a1.33 1.33 0 0 0-.47-1.792l-.902-.533a1.485 1.485 0 0 1-.725-1.281v-.003c0-.53.276-1.018.725-1.282"/>
</svg>
