<svg xmlns="http://www.w3.org/2000/svg" width="52" height="52" viewBox="0 0 52 52">
    <g fill="none" fill-rule="evenodd">
        <path fill="#1A549F" fill-rule="nonzero" d="M0 26.015C0 40.34 11.67 52 26.018 52 40.336 52 52 40.335 52 26.015 52 11.668 40.341 0 26.018 0 11.666 0 0 11.664 0 26.015z"/>
        <path fill="#FFF" d="M17.645 8.964c-1.026.444-1.808.927-2.587 1.467 6.28-2.796 13.948-2.614 18.063-.779 1.294.602 2.163.965 2.557 1.683-4.27-1.144-6.104-1.35-9.679-1.263-5.084.091-11.846 2.103-14.43 3.641l-1.138 1.415c3.722-2.202 10.668-3.64 14.517-3.762 4.298-.059 7.633.333 10.7 1.445-.182.78-.572 1.171-1.233 1.564-12.264-2.136-19.51.388-26.062 4.658l-.479 1.412c7.305-5.019 16.26-6.4 24.889-4.898-3.096 1.083-6.793 1.323-9.889 2.04-2.644.603-4.058.785-7.578 1.96-3.572 1.173-5.681 2.375-7.001 3.909-.632.724-1.114 1.564-1.236 2.464-.055.539-.026 1.024.156 1.506.144.42.476.842.84 1.262-.42.72-.786 1.656-.18 2.74.268.507.96 1.018 1.625 1.504l-.186.536c-.09.636-.178 1.385.243 2.016.719 1.142 1.59 1.896 2.973 2.618.213.933.54 1.682 1.262 2.347 1.533 1.41 4.962 4.118 11.062 4.54 4.571.303 7.846-1.083 9.08-1.685l1.502-.78c-2.554 1.02-6.85 1.622-10.371 1.321-5.11-.42-9.675-3.758-10.247-4.721.178.118.42.21.626.3 5.985 2.887 13.71 4.453 23.6.423l.814-.783c-8.992 2.796-16.863 2.707-25.313-1.713.093-.42.273-.787.66-1.082 2.163.957 4.24 1.744 6.765 2.252 2.946.543 6.311.665 9.08.543 2.796-.12 8.324-1.504 10.94-2.886.24-.21.359-.568.599-.811-5.106 1.859-11.181 2.735-14.846 2.461-3.578-.268-6.761-.69-10.972-2.614.81-.329 1.652-.6 2.494-.844 2.765.844 5.589 1.352 8.926 1.505 3.31.15 11.033-1.08 15.901-4.026.153-.422.301-.876.301-.876s-6.763 3.612-14.425 3.612c-3.579 0-5.772-.513-7.394-.903 3.604-.663 8.145-1.205 13.251-2.496 2.585-.664 5.773-2.169 7.216-3.43 1.232-1.116 2.195-2.56 1.866-4.027-.065-.395-.604-1.323-1.266-1.656.632-.812.572-1.505.485-2.102-.063-.458-.274-.965-.54-1.414-.423-.547-.817-.97-1.629-1.448.122-.693.033-1.293-.24-1.865-.63-1.083-1.77-2.013-3.725-3.005-.09-.393-.333-.904-.75-1.414-2.464-2.436-6.494-3.609-9.892-3.67-.19-.004-.38-.006-.565-.006-3.975 0-7.165.893-9.14 1.815zm19.235 6.014c.303-.332.75-.843.87-1.265.843.541 1.805 1.354 1.923 2.196-.9-.334-1.861-.69-2.793-.931zm.75 3.666c-1.44-.393-2.702-.874-4.39-1.172 1.026-.394 1.713-.812 2.319-1.295a25.76 25.76 0 0 1 3.638 1.262c-.176.263-1.206 1.215-1.52 1.215a.095.095 0 0 1-.047-.01zm2.617 1.052a6.953 6.953 0 0 0 1.083-1.023c.809.692 1.05 1.173.66 1.926-.538-.39-1.114-.603-1.743-.903zm-30.868 7.46c-2.228-3.069 5.496-5.262 6.972-5.715 3.756-1.116 8.146-1.953 12.115-2.435 2.73-.333 4.177-.029 6.764.661-6.645 1.774-13.2 2.342-19.453 4.179-5.04 1.465-6.377 3.31-6.398 3.31zm1.65 1.471c2.344-1.987 7.125-3.097 8.87-3.489 5.559-1.202 10.73-1.953 12.864-2.493 2.586-.636 4.39-1.234 5.647-1.834.061-.091 2.105.9 2.316 1.137-.69.575-1.65 1.058-2.705 1.415-3.155 1.144-8.896 2.345-11.93 2.804-3.067.508-5.627.897-9.018 1.795-1.956.515-3.28 1.116-4.243 1.75-.72-.423-1.141-.54-1.802-1.085zm4.361 2.406c.989-.42 2.071-.753 3.12-1.02 5.293-1.298 9.956-1.536 16.388-3.278 3.094-.815 5.349-1.69 6.763-2.767.209-.185.418-.333.63-.512 1.864 2.886-5.139 5.111-9.921 6.139-2.646.536-6.314 1.195-7.516 1.41-3.121.511-4.148.783-6.311 1.413-1.082-.422-2.164-.873-3.153-1.385zm-5.625-.902c.482.304.841.545 1.415.842-.211.18-.484.363-.692.572-.479-.273-.963-.869-.723-1.414zm2.497 2.766c.302-.269.69-.538 1.111-.808.902.422 1.832.808 2.704 1.201a9.276 9.276 0 0 0-1.68.814 82.4 82.4 0 0 1-2.135-1.207zm-.783 1.473c.511.332 1.022.601 1.536.875-.211.301-.364.539-.451.843-.753-.634-1.117-1.144-1.085-1.718z"/>
    </g>
</svg>
