<svg xmlns="http://www.w3.org/2000/svg" width="24" height="24" viewBox="0 0 24 24">
    <path fill="#266dc2" fill-rule="nonzero" d="M8.673 13.684a3.24 3.24 0 0 1-.325-1.403c2.015 0 3.652-1.548 3.652-3.455.55 0 1.07.122 1.537.33l1.006-.936A5.168 5.168 0 0 0 12 7.553c-2.761 0-5 2.117-5 4.728 0 .853.247 1.65.666 2.341l1.007-.937zm-2.35 2.188l-.895.834C3.374 15.069 2 13.129 2 12.28c0-1.599 4.873-7.093 10-7.093 1.552 0 3.075.51 4.45 1.256l2.35-2.186a.992.992 0 0 1 1.334 0c.368.343.368.899 0 1.242L4.835 19.743a.995.995 0 0 1-1.335 0 .837.837 0 0 1 0-1.243l1.929-1.794.894-.834zm5.227-.18l4.063-3.782c.015.123.04.244.04.371 0 1.907-1.637 3.454-3.653 3.454-.154 0-.3-.026-.45-.043zm5.212-4.852l2.54-2.365C20.942 9.958 22 11.54 22 12.281c0 1.598-4.873 7.093-10 7.093-1.215 0-2.413-.315-3.538-.807l1.942-1.808a5.25 5.25 0 0 0 1.596.25c2.761 0 5-2.117 5-4.728a4.5 4.5 0 0 0-.238-1.441z"/>
</svg>
