<svg xmlns="http://www.w3.org/2000/svg" xmlns:xlink="http://www.w3.org/1999/xlink" width="20" height="20" viewBox="0 0 20 20">
    <defs>
        <circle id="a" cx="10" cy="10" r="10"/>
        <path id="c" d="M8.255 12.143a3.23 3.23 0 0 1-2.36-.962L4.479 9.765a.667.667 0 1 1 .944-.944l1.416 1.416a2 2 0 0 0 1.416.585 2 2 0 0 0 1.416-3.417L8.255 5.989a.667.667 0 1 1 .944-.944l1.416 1.416c.604.604.963 1.454.963 2.36a3.232 3.232 0 0 1-.963 2.36 3.341 3.341 0 0 1-2.36.962zm0-4.266c.26.26.26.683 0 .944a.669.669 0 0 1-.944 0L3.535 5.045a.667.667 0 1 1 .944-.944l3.776 3.776zm-5.663 0L1.175 6.46A3.23 3.23 0 0 1 .212 4.1a3.232 3.232 0 0 1 .963-2.36 3.237 3.237 0 0 1 2.36-.963 3.237 3.237 0 0 1 2.36.963l1.416 1.417a.666.666 0 1 1-.944.943L4.95 2.685A2 2 0 0 0 3.535 2.1a2 2 0 0 0-1.416 3.417l1.416 1.415a.667.667 0 0 1-.943.945z"/>
    </defs>
    <g fill="none" fill-rule="evenodd">
        <g>
            <mask id="b" fill="#fff">
                <use xlink:href="#a"/>
            </mask>
            <use fill="#000" xlink:href="#a"/>
            <g fill="#B8BDCE" mask="url(#b)">
                <path d="M0 0h20v20H0z"/>
            </g>
        </g>
        <g transform="translate(4.167 3.333)">
            <mask id="d" fill="#fff">
                <use xlink:href="#c"/>
            </mask>
            <use fill="#262C40" xlink:href="#c"/>
            <g fill="#FFF" mask="url(#d)">
                <path d="M-4.167-3.333h20v20h-20z"/>
            </g>
        </g>
    </g>
</svg>
