<svg xmlns="http://www.w3.org/2000/svg" width="28" height="16" viewBox="0 0 28 16">
    <g fill="#FFF" fill-rule="evenodd">
        <path d="M24.857 4h-5.314c.286 1.771 2 3.429 3.886 3.429h4.228c.057-.172.057-.4.057-.572A2.83 2.83 0 0 0 24.857 4zM20 7.714V12h2.571V9.714h2.286a2.83 2.83 0 0 0 2.686-2H20zM10.857 4v8h2.286s.571 0 .857-.571l2-4h.286V12h2.571V4h-2.286s-.571.057-.857.571l-2 4h-.285V4h-2.572zM0 12V4h2.571s.743 0 1.143 1.143C4.743 8.17 4.857 8.57 4.857 8.57S5.086 7.83 6 5.143C6.4 4 7.143 4 7.143 4h2.571v8H7.143V7.714h-.286L5.43 12H4.286L2.857 7.714h-.286V12H0z"/>
    </g>
</svg>
