<svg xmlns="http://www.w3.org/2000/svg" xmlns:xlink="http://www.w3.org/1999/xlink" width="40" height="40" viewBox="0 0 40 40">
    <defs>
        <path id="a" d="M12.62 3.86l-1.338-1.331a1.817 1.817 0 0 0-2.563 0L.296 10.903a1.014 1.014 0 0 0-.296.72c0 .55.428.994.955.994h1.773v8.474c0 .502.407.909.909.909h4.091v-4.455a.91.91 0 0 1 .91-.91h2.725a.91.91 0 0 1 .91.91V22h4.09a.91.91 0 0 0 .91-.909v-4.555c-3.795-.367-6.773-3.573-6.773-7.463 0-2.024.811-3.862 2.12-5.213zM12 9.073a6 6 0 1 0 12 0 6 6 0 0 0-12 0zm7.956 3.5c-.394 0-.79-.15-1.091-.452a1.547 1.547 0 0 1 0-2.183c.583-.584 1.602-.582 2.183 0 .602.601.602 1.58 0 2.183a1.538 1.538 0 0 1-1.092.451zm-.384-1.927a.543.543 0 1 0 .769 0 .54.54 0 0 0-.769 0zm-3.528-5.073A1.545 1.545 0 1 1 14.5 7.116c0-.85.693-1.543 1.544-1.543zm0 1a.544.544 0 1 0 0 1.088.544.544 0 0 0 0-1.087zm-.17 5.331a.497.497 0 0 1-.706 0 .5.5 0 0 1 0-.707l4.957-4.956a.5.5 0 0 1 .707.707l-4.957 4.956z"/>
    </defs>
    <g fill="none" fill-rule="evenodd">
        <circle cx="20" cy="20" r="20" fill="#73CE6C"/>
        <use fill="#FFF" transform="translate(8 8)" xlink:href="#a"/>
    </g>
</svg>
