<svg xmlns="http://www.w3.org/2000/svg" xmlns:xlink="http://www.w3.org/1999/xlink" width="24" height="24" viewBox="0 0 24 24">
    <defs>
        <path id="a" d="M6.322 15.133a6.239 6.239 0 0 1 0-8.812 6.213 6.213 0 0 1 4.405-1.82c1.595 0 3.191.606 4.406 1.82a6.239 6.239 0 0 1 0 8.812 6.237 6.237 0 0 1-8.811 0m14.456 4.583l-4.081-4.08c2.498-3.033 2.332-7.54-.503-10.375-3.014-3.015-7.92-3.015-10.933 0-3.014 3.014-3.014 7.918 0 10.933a7.707 7.707 0 0 0 5.466 2.26 7.712 7.712 0 0 0 4.91-1.757l4.08 4.08a.746.746 0 0 0 1.06 0 .75.75 0 0 0 0-1.06"/>
    </defs>
    <use fill="#262C40" fill-rule="nonzero" xlink:href="#a"/>
</svg>
