<svg xmlns="http://www.w3.org/2000/svg" width="28" height="16" viewBox="0 0 28 16">
    <g fill="#FFF" fill-rule="evenodd">
        <path d="M7.914 3.84L5.655 9.636l-.913-4.927c-.105-.55-.528-.867-1-.867H.05L0 4.087c.756.169 1.618.436 2.14.723.318.177.41.33.513.75l1.733 6.794H6.68l3.515-8.513H7.914M11.273 3.956l-1.886 8.268h2.283l1.884-8.268h-2.28M16.55 6.247c.009-.296.31-.612.97-.694.327-.04 1.228-.07 2.252.369l.4-1.75a6.471 6.471 0 0 0-2.136-.37c-2.258 0-3.845 1.126-3.859 2.736-.012 1.188 1.136 1.855 2 2.25.889.404 1.188.663 1.183 1.027-.005.556-.71.799-1.365.81-1.15.015-1.815-.292-2.347-.522l-.412 1.812c.532.229 1.518.429 2.541.44 2.394 0 3.964-1.114 3.973-2.83.009-2.185-3.222-2.304-3.2-3.278M23.681 3.84c-.433 0-.799.245-.961.625l-3.382 7.89h2.369l.47-1.273h2.886l.27 1.272h2.092l-1.819-8.513h-1.925zm-.856 5.498l1.198-3.197.674 3.197h-1.872z"/>
    </g>
</svg>
